<svg width="122" height="17" viewBox="0 0 122 17" fill="none" xmlns="http://www.w3.org/2000/svg">
<path d="M4.2 11.9C4.2 12.82 4.86 13.28 6.18 13.28C7.51333 13.28 8.18 12.8667 8.18 12.04C8.18 11.6 7.95333 11.24 7.5 10.96C7.04667 10.68 6.49333 10.4467 5.84 10.26C5.2 10.0733 4.55333 9.86 3.9 9.62C3.26 9.36667 2.71333 8.98 2.26 8.46C1.80667 7.92667 1.58 7.26667 1.58 6.48C1.58 3.13333 3.73333 1.46 8.04 1.46C9.61333 1.46 10.8 1.76 11.6 2.36C12.4133 2.94667 12.82 3.76667 12.82 4.82C12.82 5.20667 12.7667 5.58 12.66 5.94C12.5667 6.28667 12.4667 6.53333 12.36 6.68L12.2 6.92H8.66C8.95333 6.61333 9.1 6.22667 9.1 5.76C9.1 4.89333 8.53333 4.46 7.4 4.46C5.97333 4.46 5.26 4.91333 5.26 5.82C5.26 6.27333 5.48667 6.63333 5.94 6.9C6.39333 7.16667 6.94 7.38 7.58 7.54C8.23333 7.68667 8.88667 7.87333 9.54 8.1C10.1933 8.32667 10.7467 8.70667 11.2 9.24C11.6533 9.76 11.88 10.44 11.88 11.28C11.88 12.9733 11.3733 14.2333 10.36 15.06C9.34667 15.8733 7.78667 16.28 5.68 16.28C3.57333 16.28 2.13333 15.9067 1.36 15.16C0.786667 14.6 0.5 13.8267 0.5 12.84C0.5 12.4667 0.54 12.06 0.62 11.62L0.68 11.3H4.28L4.24 11.54C4.21333 11.6733 4.2 11.7933 4.2 11.9ZM23.7888 13.44C24.0954 13.44 24.3688 13.3733 24.6088 13.24L24.5088 15.5C23.8821 16.02 23.1688 16.28 22.3688 16.28C20.5554 16.28 19.6488 15.52 19.6488 14C19.6488 13.7333 19.6754 13.4467 19.7288 13.14L20.1688 10.68C20.2088 10.44 20.2288 10.2 20.2288 9.96C20.2288 9.32 19.8888 9 19.2088 9C18.5421 9 18.0221 9.22667 17.6488 9.68L16.5288 16H13.1288L15.8088 0.819999H19.2088L18.0688 7.28C18.8021 6.49333 19.7221 6.1 20.8288 6.1C22.1754 6.1 23.0488 6.4 23.4488 7C23.7288 7.4 23.8688 7.84667 23.8688 8.34C23.8688 8.83333 23.8288 9.28667 23.7488 9.7L23.2088 12.68C23.1954 12.76 23.1888 12.8333 23.1888 12.9C23.1888 13.26 23.3888 13.44 23.7888 13.44ZM29.8316 16.28C27.0582 16.28 25.6716 15.32 25.6716 13.4C25.6716 13.1333 25.6982 12.8467 25.7516 12.54L26.1716 10.06C26.3982 8.78 26.9849 7.8 27.9316 7.12C28.8916 6.42667 30.1582 6.08 31.7316 6.08C34.4116 6.08 35.7516 7.09333 35.7516 9.12C35.7516 9.41333 35.7249 9.73333 35.6716 10.08L35.4316 11.5H29.3316L29.2516 11.96C29.2249 12.12 29.2116 12.2667 29.2116 12.4C29.2116 13.1333 29.6449 13.5 30.5116 13.5C30.8316 13.5 31.1049 13.4 31.3316 13.2C31.5582 13 31.6916 12.7667 31.7316 12.5L35.0516 12.54C34.6116 15.0333 32.8716 16.28 29.8316 16.28ZM32.2316 10.28C32.2849 10.0533 32.3116 9.84667 32.3116 9.66C32.3116 9.46 32.2249 9.26 32.0516 9.06C31.8782 8.86 31.5982 8.76 31.2116 8.76C30.8382 8.76 30.4916 8.88667 30.1716 9.14C29.8649 9.39333 29.6516 9.77333 29.5316 10.28H32.2316ZM46.5267 8.42C46.5267 8.87333 46.4467 9.31333 46.2867 9.74C46.1401 10.1667 45.9934 10.48 45.8467 10.68L45.6267 10.96H42.6067C42.9401 10.6533 43.1067 10.2733 43.1067 9.82C43.1067 9.58 43.0267 9.38667 42.8667 9.24C42.7201 9.08 42.5134 9 42.2467 9C41.7934 9 41.4001 9.22667 41.0667 9.68L39.9467 16H36.5467L38.2467 6.38H41.4067L41.1667 7.72C41.9267 6.64 42.8467 6.1 43.9267 6.1C44.7934 6.1 45.4401 6.30667 45.8667 6.72C46.3067 7.13333 46.5267 7.7 46.5267 8.42ZM50.8202 12.92C50.8202 13.2667 50.9935 13.44 51.3402 13.44C51.7002 13.44 52.0002 13.3733 52.2402 13.24L52.1402 15.5C51.5002 16.02 50.7802 16.28 49.9802 16.28C48.7668 16.28 47.9802 16 47.6202 15.44C47.3935 15.08 47.2802 14.6867 47.2802 14.26C47.2802 13.8333 47.3068 13.46 47.3602 13.14L49.5402 0.819999H52.9402L50.8402 12.68C50.8268 12.76 50.8202 12.84 50.8202 12.92ZM59.4669 6.1C60.9069 6.1 61.9935 6.41333 62.7269 7.04C63.3002 7.53333 63.5869 8.22 63.5869 9.1C63.5869 9.39333 63.5535 9.71333 63.4869 10.06L63.0669 12.4C62.8135 13.8133 62.2202 14.8133 61.2869 15.4C60.3669 15.9867 59.1335 16.28 57.5869 16.28C56.0402 16.28 54.9069 15.9867 54.1869 15.4C53.6535 14.96 53.3869 14.3 53.3869 13.42C53.3869 13.1133 53.4202 12.7733 53.4869 12.4L53.9069 10.06C54.3735 7.42 56.2269 6.1 59.4669 6.1ZM60.0069 10.46C60.0335 10.3267 60.0469 10.16 60.0469 9.96C60.0469 9.74667 59.9602 9.51333 59.7869 9.26C59.6135 9.00667 59.3069 8.88 58.8669 8.88C58.4402 8.88 58.0802 9.02667 57.7869 9.32C57.4935 9.6 57.3069 9.98 57.2269 10.46L56.9669 11.96C56.9402 12.0933 56.9269 12.2667 56.9269 12.48C56.9269 12.68 57.0135 12.9 57.1869 13.14C57.3602 13.38 57.6602 13.5 58.0869 13.5C58.5269 13.5 58.8935 13.3533 59.1869 13.06C59.4802 12.7533 59.6669 12.3867 59.7469 11.96L60.0069 10.46ZM68.8159 16.28C66.0426 16.28 64.6559 15.32 64.6559 13.4C64.6559 13.1333 64.6826 12.8467 64.7359 12.54L65.1559 10.06C65.3693 8.78 65.9493 7.8 66.8959 7.12C67.8559 6.44 69.0693 6.09333 70.5359 6.08C73.3759 6.08 74.7959 7.06667 74.7959 9.04C74.7959 9.46667 74.7426 9.85333 74.6359 10.2C74.5426 10.5333 74.4426 10.76 74.3359 10.88L74.1759 11.08H70.7759C71.1093 10.7867 71.2759 10.44 71.2759 10.04C71.2759 9.32 70.9159 8.96 70.1959 8.96C69.7693 8.96 69.4026 9.08667 69.0959 9.34C68.7893 9.59333 68.5893 9.98 68.4959 10.5L68.2359 11.96C68.2093 12.0933 68.1959 12.22 68.1959 12.34C68.1959 13.0467 68.6359 13.4 69.5159 13.4C69.8093 13.4 70.0693 13.3067 70.2959 13.12C70.5359 12.9333 70.6759 12.7267 70.7159 12.5L74.0359 12.54C73.5959 15.0333 71.8559 16.28 68.8159 16.28ZM85.352 13.44C85.6587 13.44 85.932 13.3733 86.172 13.24L86.072 15.5C85.4454 16.02 84.6787 16.28 83.772 16.28C82.8654 16.28 82.192 16.04 81.752 15.56C81.3254 15.08 80.992 14.2733 80.752 13.14L80.692 12.86C80.412 12.9 79.992 12.9333 79.432 12.96L78.892 16H75.492L78.172 0.819999H81.572L80.412 7.4C81.1987 6.53333 82.2654 6.1 83.612 6.1C84.5187 6.1 85.1854 6.32667 85.612 6.78C86.052 7.22 86.272 7.81333 86.272 8.56C86.272 10 85.5187 11.1267 84.012 11.94L84.232 12.68C84.3787 13.1867 84.752 13.44 85.352 13.44ZM81.892 8.82C81.172 8.82 80.532 9.16 79.972 9.84L79.752 11.16C81.7254 11.08 82.712 10.5533 82.712 9.58C82.712 9.35333 82.6387 9.17333 82.492 9.04C82.3587 8.89333 82.1587 8.82 81.892 8.82ZM96.8633 16H87.7433L90.2833 1.6H93.8833L91.9033 12.88H97.4233L96.8633 16ZM107.906 12.92C107.906 13.2667 108.079 13.44 108.426 13.44C108.786 13.44 109.086 13.3733 109.326 13.24L109.226 15.5C108.586 16.02 107.866 16.28 107.066 16.28C105.599 16.28 104.786 15.7467 104.626 14.68C103.959 15.7467 102.979 16.28 101.686 16.28C99.4993 16.28 98.4059 15.34 98.4059 13.46C98.4059 13.14 98.4393 12.7867 98.5059 12.4L98.9259 10.06C99.1393 8.86 99.6259 7.90667 100.386 7.2C101.159 6.48 102.159 6.12 103.386 6.12C104.626 6.12 105.466 6.40667 105.906 6.98L106.006 6.38H109.046L107.926 12.68C107.913 12.76 107.906 12.84 107.906 12.92ZM101.986 11.96C101.959 12.08 101.946 12.2467 101.946 12.46C101.946 12.6733 102.046 12.8867 102.246 13.1C102.446 13.3 102.779 13.4 103.246 13.4C103.726 13.4 104.139 13.2133 104.486 12.84L105.086 9.48C104.939 9.14667 104.593 8.98 104.046 8.98C103.019 8.98 102.419 9.47333 102.246 10.46L101.986 11.96ZM120.197 12.92C120.197 13.2667 120.371 13.44 120.717 13.44C121.077 13.44 121.377 13.3733 121.617 13.24L121.517 15.5C120.877 16.02 120.157 16.28 119.357 16.28C117.851 16.28 117.031 15.7 116.897 14.54C116.097 15.7 115.017 16.28 113.657 16.28C112.311 16.28 111.437 15.9733 111.037 15.36C110.771 14.9733 110.637 14.5333 110.637 14.04C110.637 13.5467 110.677 13.0933 110.757 12.68L111.877 6.38H115.277L114.337 11.7C114.297 11.94 114.277 12.18 114.277 12.42C114.277 13.06 114.637 13.38 115.357 13.38C115.957 13.38 116.437 13.1733 116.797 12.76L117.937 6.38H121.337L120.217 12.68C120.204 12.76 120.197 12.84 120.197 12.92Z" fill="black"/>
</svg>
